<svg width="16" height="16" viewBox="0 0 16 16" fill="none" xmlns="http://www.w3.org/2000/svg">
<path fill-rule="evenodd" clip-rule="evenodd" d="M0 8C0 5.87827 0.842855 3.84344 2.34315 2.34315C3.84344 0.842855 5.87827 0 8 0C10.1217 0 12.1566 0.842855 13.6569 2.34315C15.1571 3.84344 16 5.87827 16 8C16 10.1217 15.1571 12.1566 13.6569 13.6569C12.1566 15.1571 10.1217 16 8 16C5.87827 16 3.84344 15.1571 2.34315 13.6569C0.842855 12.1566 0 10.1217 0 8H0ZM7.54347 11.424L12.1493 5.66613L11.3173 5.00053L7.38987 9.90827L4.608 7.5904L3.92533 8.4096L7.54347 11.4251V11.424Z" fill="#43B224"/>
<ellipse cx="8.44477" cy="8.44404" rx="5.77778" ry="5.77778" fill="#43B224"/>
<g clip-path="url(#clip0)">
<path d="M11.1474 4.0769L7.07452 9.4467L4.66653 7.04045L3.55542 8.15156L7.25855 11.8547L12.4443 5.18802L11.1474 4.0769Z" fill="white"/>
</g>
<defs>
<clipPath id="clip0">
<rect width="8.88889" height="8.88889" fill="white" transform="translate(3.55542 3.55566)"/>
</clipPath>
</defs>
</svg>
